

:::::::::::: EP1C Presents ::::::::::::

::File:: Source.Code.2011.BRRip.KORSUB.AC3.XViD-EP1C

::Video Source:: Source.Code.2011.KORSUB.HDRip.720P.x264-Death
::Audio Source:: Source.Code.2011.KORSUB.HDRip.720P.x264-Death
::Language:::::: English
::IMDB:::::::::: http://www.imdb.com/title/tt0945513/

An action thriller centered on a soldier who wakes up in the body of an 
unknown man and discovers he's part of a mission to find the bomber of a 
Chicago commuter train.

::Specs:::::::::

Format : AVI
Format/Info : Audio Video Interleave
File size : 1.37 GiB
Duration : 1h 32mn
Overall bit rate : 2 111 Kbps
Writing application : VirtualDubMod 1.5.10.2 (build 2540/release)
Writing library : VirtualDubMod build 2540/release

Video
ID : 0
Format : MPEG-4 Visual
Format profile : Advanced Simple@L5
Format settings, BVOP : Yes
Format settings, QPel : No
Format settings, GMC : No warppoints
Format settings, Matrix : Default (MPEG)
Muxing mode : Packed bitstream
Codec ID : XVID
Codec ID/Hint : XviD
Duration : 1h 32mn
Bit rate : 1 907 Kbps
Width : 720 pixels
Height : 400 pixels
Display aspect ratio : 16:9
Frame rate : 29.970 fps
Color space : YUV
Chroma subsampling : 4:2:0
Bit depth : 8 bits
Scan type : Progressive
Bits/(Pixel*Frame) : 0.221
Stream size : 1.24 GiB (90%)
Writing library : XviD 58

Audio
ID : 1
Format : AC-3
Format/Info : Audio Coding 3
Mode extension : CM (complete main)
Codec ID : 2000
Duration : 1h 32mn
Bit rate mode : Constant
Bit rate : 192 Kbps
Channel(s) : 2 channels
Channel positions : Front: L R
Sampling rate : 48.0 KHz
Bit depth : 16 bits
Stream size : 128 MiB (9%)
Alignment : Split accross interleaves
Interleave, duration : 33 ms (1.00 video frame)
Interleave, preload duration : 500 ms

::NOTES::::::::: 
Presenting Source Code BRRip. This release has hardcoded Korean Subs. 
Enjoy. //EP1C

:: Got something we might be interested in? contact us: epic@hushmail.me ::

:::::::::::::::::::::::::::::::: RESPECT :::::::::::::::::::::::::::::::::
IMAGiNE, Rx, FLAWL3SS, ViSiON, HiVE, bobwhite, Vik, OneTwo & All Our Friends!

:::::::::::::::: We Are :::::::::::::::: 
:::::: Surpassing the usual or ordinary ::::::
:::::::::::::::::: Heroic and impressive in quality :::::::::::::::::: 
:::::::::::::::::::::::::::::::: EP1C ::::::::::::::::::::::::::::::::

screenshots:
 
http://www.grinshare.com/img/5NEIO3.png
 
http://www.grinshare.com/img/SALSS5.png
 
http://www.grinshare.com/img/X04CSK.png
 
http://www.grinshare.com/img/Y6Q2MQ.png